<svg width="64" height="40" viewBox="0 0 64 40" fill="none" xmlns="http://www.w3.org/2000/svg">
<path d="M59.3269 7.14575H20.3591V39.1572H59.3269V7.14575Z" fill="#FE9000"/>
<path d="M45.0604 23.9595C47.7271 23.9595 49.889 21.8069 49.889 19.1516C49.889 16.4963 47.7271 14.3438 45.0604 14.3438C42.3936 14.3438 40.2318 16.4963 40.2318 19.1516C40.2318 21.8069 42.3936 23.9595 45.0604 23.9595Z" fill="#FE9000"/>
<path d="M47.05 38.8116C47.0022 38.764 45.9894 37.2672 44.7972 35.4847C43.605 33.7021 41.9264 33.2376 41.0611 34.4485C40.1959 35.6593 40.1919 37.1799 41.0611 37.8151C42.2235 38.5443 43.5632 38.945 44.9368 38.9744C46.2007 38.9744 47.1019 38.8592 47.05 38.8116Z" fill="white"/>
<path d="M16.2641 0.157959C15.2067 0.157959 14.1925 0.576244 13.4447 1.3208C12.6969 2.06535 12.2769 3.07518 12.2769 4.12813V35.0042C12.2769 35.5256 12.38 36.0418 12.5804 36.5235C12.7807 37.0052 13.0745 37.4429 13.4447 37.8115C13.815 38.1802 14.2545 38.4726 14.7383 38.6722C15.222 38.8717 15.7405 38.9744 16.2641 38.9744H25.718C27.911 38.9744 30.5267 37.3863 31.5275 35.4449L33.7205 31.2008C34.7253 29.2593 34.2428 27.4569 32.6479 27.1949C31.7656 27.1065 30.8751 27.2381 30.0566 27.5777C29.238 27.9173 28.5172 28.4543 27.9589 29.1402C26.97 30.4742 25.3193 32.0345 24.2826 32.6102L23.4054 31.9789L22.5322 31.3715C22.7714 30.2678 23.8599 28.1953 24.9445 26.7423C25.7954 25.5704 26.7395 24.4685 27.7675 23.447C28.23 23.0778 31.4996 22.8515 33.6926 22.8952L36.0531 22.9468C38.2461 22.9904 41.097 23.6296 42.3929 24.3641C43.6887 25.0986 45.5548 27.2901 46.5436 29.2395L47.4966 31.1253C48.4854 33.0747 50.5548 34.1149 52.0979 33.436C53.7579 32.7193 55.4643 32.1145 57.2056 31.6256L57.9592 32.5268L58.7128 33.4241C58.1187 34.5437 56.0015 36.2032 54.0078 37.1203L53.6091 37.3109C51.6155 38.224 51.7789 38.9704 53.972 38.9704H60.0127C60.5363 38.9704 61.0548 38.8677 61.5386 38.6682C62.0223 38.4687 62.4619 38.1762 62.8321 37.8076C63.2024 37.4389 63.4961 37.0012 63.6965 36.5195C63.8969 36.0379 64 35.5216 64 35.0002V4.12813C64 3.60676 63.8969 3.0905 63.6965 2.60881C63.4961 2.12713 63.2024 1.68946 62.8321 1.3208C62.4619 0.952132 62.0223 0.659691 61.5386 0.460171C61.0548 0.260651 60.5363 0.157959 60.0127 0.157959L16.2641 0.157959ZM40.3633 19.4927C40.467 13.6208 49.562 13.6208 49.6657 19.4927C49.562 25.3646 40.467 25.3606 40.3633 19.4927Z" fill="white"/>
<path d="M49.7096 17.0474C49.7096 17.4881 47.676 18.3179 45.1202 18.3457C42.5643 18.3735 40.463 17.5914 40.4551 17.1546C40.4152 15.0226 39.9367 13.3869 44.9448 13.3591C50.2638 13.3234 49.6298 14.3 49.7096 17.0474Z" fill="#FE9000"/>
<path d="M45.1202 10.1909L36.2764 13.1963V13.4028L45.0564 17.0474L53.5174 12.974V12.7596L45.1202 10.1909Z" fill="#FE9000"/>
<g style="mix-blend-mode:screen" opacity="0.9">
<path d="M45.0564 16.8369V17.0474L36.2764 13.4027V13.1963L44.8171 12.9858L45.0564 16.8369Z" fill="#FE9000"/>
</g>
<g style="mix-blend-mode:multiply" opacity="0.3">
<path d="M45.0564 17.0474L53.5174 12.9741V12.7598L45.0285 12.8987L44.7853 13.0138L45.0564 16.837V17.0474Z" fill="#FE9000"/>
</g>
<path d="M45.1202 10.1909L36.2764 13.1963L45.0564 16.8369L53.5174 12.7596L45.1202 10.1909Z" fill="#FE9000"/>
<path d="M45.0803 13.3711C45.0803 13.3711 40.9734 14.6573 40.5348 14.959C40.0962 15.2608 39.7373 16.8368 39.1831 17.4244C38.0985 18.6154 38.6488 17.48 38.6488 17.48C39.008 17.0898 39.3064 16.6482 39.534 16.1699C39.853 15.4513 39.9566 14.9789 40.2118 14.7963C40.467 14.6137 44.4822 13.2837 44.4822 13.2837L44.8809 13.1289L45.0803 13.3711Z" fill="#FE9000"/>
<path d="M44.5978 13.2121C44.5978 13.3351 44.8132 13.4382 45.0803 13.4382C45.3474 13.4382 45.5628 13.3351 45.5628 13.2121V13.1289H45.5309C45.4056 13.0237 45.2436 12.9724 45.0803 12.9861C44.9172 12.9737 44.7556 13.0249 44.6297 13.1289H44.5978V13.2121Z" fill="#FE9000"/>
<g style="mix-blend-mode:multiply" opacity="0.8">
<path d="M44.5978 13.212C44.5978 13.335 44.8132 13.4382 45.0803 13.4382C45.3474 13.4382 45.5628 13.335 45.5628 13.212V13.1326H45.5309C45.4056 13.0274 45.2436 12.976 45.0803 12.9897C44.9172 12.9773 44.7556 13.0286 44.6297 13.1326H44.5978V13.212Z" fill="#FE9000"/>
</g>
<path d="M45.5628 13.1367C45.5628 13.2598 45.3474 13.363 45.0803 13.363C44.8132 13.363 44.5978 13.2598 44.5978 13.1367C44.5978 13.0136 44.8132 12.9104 45.0803 12.9104C45.3474 12.9104 45.5628 13.0097 45.5628 13.1367Z" fill="#FE9000"/>
<path d="M36.9542 19.0601C37.4948 18.9279 38.0068 18.6992 38.4654 18.3852C38.9877 17.9565 39.1114 17.5516 39.0515 17.4563C38.9917 17.3611 38.7047 17.1904 38.0348 17.6667C37.6333 17.9551 37.1965 18.1912 36.7349 18.3694C36.7454 18.6148 36.8211 18.8532 36.9542 19.0601Z" fill="#FE9000"/>
<g style="mix-blend-mode:multiply" opacity="0.5">
<path d="M36.7469 18.5243C36.9905 18.4564 37.2259 18.3618 37.4486 18.2423C37.7162 18.0971 37.9709 17.9298 38.2102 17.7419C37.9367 18.0119 37.6251 18.2407 37.2852 18.421C37.1216 18.5134 36.9525 18.5956 36.7788 18.6672C36.7668 18.6156 36.7549 18.568 36.7469 18.5243Z" fill="#FE9000"/>
</g>
<g style="mix-blend-mode:multiply" opacity="0.5">
<path d="M36.8585 18.8698L37.0021 18.8181C37.2935 18.7263 37.5763 18.6093 37.8474 18.4685C37.551 18.666 37.2291 18.8224 36.8904 18.9333L36.8585 18.8698Z" fill="#FE9000"/>
</g>
<path d="M39.0316 24.6938C33.892 15.1734 27.9788 15.7252 22.0696 16.0706C16.1645 16.5351 10.2553 16.7892 5.11169 9.50794C5.4546 8.57892 5.79485 7.59564 6.13244 6.55811C11.276 13.7481 17.1852 13.9545 23.0944 13.7044C28.9996 13.6568 34.9087 13.1843 40.0523 23.5822C39.6843 23.9265 39.3431 24.2981 39.0316 24.6938Z" fill="#FE9000"/>
<path d="M36.4 28.7754C26.1128 13.0453 12.7593 31.6697 2.4801 14.9867C2.81902 14.3793 3.16193 13.7043 3.50085 12.9619C13.7841 28.8707 27.1335 10.2661 37.4207 26.7307C37.0778 27.3421 36.7376 28.0237 36.4 28.7754Z" fill="#FE9000"/>
<path d="M33.9199 35.322C28.7763 28.132 22.8671 27.9256 16.9579 28.1757C11.0488 28.2075 5.14361 28.6958 0 18.29C0.366687 17.9472 0.707837 17.5783 1.02075 17.1863C6.16435 26.7147 12.0735 26.1549 17.9787 25.8095C23.8879 25.345 29.797 25.0909 34.9406 32.3722C34.5977 33.3012 34.2575 34.2845 33.9199 35.322Z" fill="#FE9000"/>
<path d="M57.7121 27.6436H47.7717V34.385H57.7121V27.6436Z" fill="#FE9000"/>
</svg>
