<svg width="188" height="32" viewBox="0 0 188 32" fill="none" xmlns="http://www.w3.org/2000/svg">
<path d="M20.9749 25.6372L15.7248 12.6696L10.2884 25.6372L0 0.157227H7.28235L12.3631 13.8584L14.2345 9.17893L10.6525 0.157227H17.918L22.9987 13.6055L28.2487 0.157227H31.5343L20.9749 25.6372Z" fill="white"/>
<path d="M28.2572 25.0222L32.5927 11.574C32.8429 10.543 33.3364 9.58621 34.0323 8.78315C34.6346 8.24545 35.426 7.96663 36.2339 8.00746C36.9693 7.96597 37.692 8.21088 38.2493 8.69041C38.8936 9.45041 39.3542 10.3475 39.5957 11.3126L44.0582 25.0222H38.3932L37.4787 22.0037H31.9746L31.1278 25.0222H28.2572ZM32.6435 19.6851H36.7759L34.7944 12.5267L32.6435 19.6851Z" fill="white"/>
<path d="M44.507 8.52173H50.4345L53.7623 16.3715L56.9971 8.52173H59.8168L49.6554 31.9951H46.6494L50.8155 22.4L44.507 8.52173Z" fill="white"/>
<path d="M78.7764 25.0222V3.50494H72.1122V0.132324H92.435V3.50494H85.7877V25.0222H78.7764Z" fill="white"/>
<path d="M98.3879 25.6378C97.2435 25.6618 96.1076 25.4374 95.0592 24.9802C94.0107 24.523 93.0747 23.844 92.3164 22.9903C90.6766 21.1803 89.8055 18.8078 89.8862 16.3715C89.8358 15.2542 90.0157 14.1385 90.4148 13.093C90.8138 12.0475 91.4235 11.0944 92.2063 10.2924C93.0281 9.51527 93.9996 8.91211 95.062 8.51938C96.1245 8.12665 97.2559 7.9525 98.3879 8.00747C99.5274 7.98265 100.659 8.20684 101.702 8.66425C102.745 9.12166 103.675 9.80118 104.425 10.655C106.059 12.4716 106.926 14.8451 106.847 17.2821C106.903 18.3997 106.73 19.5169 106.336 20.5652C105.943 21.6135 105.339 22.5707 104.561 23.3781C103.738 24.1489 102.766 24.7462 101.706 25.1345C100.645 25.5228 99.5166 25.6939 98.3879 25.6378ZM101.021 16.9533C101.102 15.2396 100.869 13.5255 100.335 11.8944C99.8867 10.7646 99.1923 10.2081 98.2778 10.2081C97.3633 10.2081 96.779 10.7477 96.3556 11.8185C95.8597 13.3878 95.6448 15.0317 95.7205 16.6751C95.6455 18.3885 95.8777 20.1016 96.4064 21.734C96.8721 22.8638 97.5496 23.4203 98.4641 23.4203C99.3786 23.4203 99.9629 22.8891 100.386 21.8099C100.878 20.2396 101.093 18.5965 101.021 16.9533Z" fill="white"/>
<path d="M119.515 21.7843H120.235C121.929 21.7843 123.097 21.4218 123.698 20.6967C124.299 19.9716 124.587 18.3022 124.587 15.6884V0.157715H131.59V16.7592C131.59 19.7383 130.851 21.8715 129.372 23.1587C127.893 24.4459 125.434 25.0923 121.996 25.0979C121.336 25.0979 120.828 25.0979 120.481 25.0979C120.133 25.0979 119.812 25.0979 119.515 25.0473V21.7843Z" fill="white"/>
<path d="M134.918 25.0222L139.237 11.5739C139.492 10.5431 139.988 9.58689 140.685 8.78304C140.981 8.51625 141.327 8.31039 141.704 8.17727C142.08 8.04414 142.479 7.9864 142.878 8.00734C143.614 7.96404 144.337 8.20918 144.893 8.69029C145.538 9.4503 145.998 10.3474 146.24 11.3125L150.702 25.0222H145.046L144.123 22.0037H138.619L137.772 25.0222H134.918ZM139.288 19.685H143.42L141.438 12.5266L139.288 19.685Z" fill="white"/>
<path d="M159.128 31.9951H153.683V8.52173H159.958C163.266 8.52173 165.783 9.27214 167.511 10.7729C169.204 12.2738 170.094 14.4575 170.094 17.3242C170.094 19.938 169.323 21.8801 167.782 23.1504C166.241 24.4236 163.895 25.056 160.762 25.056H159.746H159.119L159.128 31.9951ZM159.128 10.8151V22.7289C160.957 22.7289 162.261 22.2398 163.057 21.3292C163.853 20.4186 164.242 18.9094 164.242 16.8015C164.242 14.6936 163.844 13.1591 163.048 12.2316C162.252 11.3041 160.94 10.8404 159.128 10.8151Z" fill="white"/>
<path d="M171.677 25.0224L175.987 11.5739C176.243 10.5431 176.739 9.58685 177.435 8.78299C178.034 8.24577 178.823 7.96685 179.628 8.00727C180.363 7.97676 181.08 8.23404 181.627 8.72396C182.277 9.47982 182.739 10.3785 182.973 11.3462L187.436 25.0562H181.796L180.882 22.0376H175.369L174.522 25.0562L171.677 25.0224ZM176.063 19.6852H180.187L178.24 12.5604L176.063 19.6852Z" fill="white"/>
</svg>
