<svg width="64" height="64" viewBox="0 0 64 64" fill="none" xmlns="http://www.w3.org/2000/svg">
<path d="M31.9998 0L38.6758 3.456L46.1078 4.584L49.4758 11.304L54.8238 16.584L53.5998 24L54.8238 31.416L49.4758 36.696L46.1078 43.416L38.6758 44.544L31.9998 48L25.3238 44.544L17.8918 43.416L14.5238 36.696L9.17584 31.416L10.3998 24L9.17584 16.584L14.5238 11.304L17.8918 4.584L25.3238 3.456L31.9998 0Z" fill="#094074"/>
<path d="M16 47.176V64L32 60L48 64V47.176L39.928 48.4L32 52.504L24.072 48.4L16 47.176Z" fill="#094074"/>
</svg>
