<svg width="24" height="24" viewBox="0 0 24 24" fill="none" xmlns="http://www.w3.org/2000/svg">
<path fill-rule="evenodd" clip-rule="evenodd" d="M4.5 0.75C3.50544 0.75 2.55161 1.14509 1.84835 1.84835C1.14509 2.55161 0.75 3.50544 0.75 4.5V19.5C0.75 20.4946 1.14509 21.4484 1.84835 22.1517C2.55161 22.8549 3.50544 23.25 4.5 23.25H19.5C20.4946 23.25 21.4484 22.8549 22.1517 22.1517C22.8549 21.4484 23.25 20.4946 23.25 19.5V4.5C23.25 3.50544 22.8549 2.55161 22.1517 1.84835C21.4484 1.14509 20.4946 0.75 19.5 0.75H4.5ZM19.5 3.25H4.5C4.16848 3.25 3.85054 3.3817 3.61612 3.61612C3.3817 3.85054 3.25 4.16848 3.25 4.5V19.5C3.25 19.8315 3.3817 20.1495 3.61612 20.3839C3.85054 20.6183 4.16848 20.75 4.5 20.75H19.5C19.8315 20.75 20.1495 20.6183 20.3839 20.3839C20.6183 20.1495 20.75 19.8315 20.75 19.5V4.5C20.75 4.16848 20.6183 3.85054 20.3839 3.61612C20.1495 3.3817 19.8315 3.25 19.5 3.25Z" fill="black" fill-opacity="0.5"/>
</svg>
