<svg width="64" height="64" viewBox="0 0 64 64" fill="none" xmlns="http://www.w3.org/2000/svg">
<path d="M14.5898 20.48H4.82713C3.85086 20.48 3.20001 21.056 3.20001 21.92V59.36C3.20001 60.224 3.85086 60.8 4.82713 60.8H14.5898C15.5661 60.8 16.217 60.224 16.217 59.36V21.92C16.217 21.056 15.5661 20.48 14.5898 20.48Z" fill="#094074"/>
<path d="M50.7118 11.8403C50.3864 10.9763 49.7356 10.6882 48.7593 10.6882L39.322 12.4161C38.3457 12.7041 38.0203 13.2804 38.0203 14.1444L48.1085 59.3603C48.4339 60.2243 49.0847 60.5123 50.061 60.5123L59.4983 58.7844C60.4746 58.4964 60.8 57.9201 60.8 57.0561L50.7118 11.8403Z" fill="#094074"/>
<path d="M34.1152 3.2H24.3525C23.3763 3.2 22.7254 3.776 22.7254 4.64V59.36C22.7254 60.224 23.3763 60.8 24.3525 60.8H34.1152C35.0915 60.8 35.7423 60.224 35.7423 59.36V4.64C35.7423 3.776 35.0915 3.2 34.1152 3.2Z" fill="#094074"/>
</svg>
