<svg width="64" height="64" viewBox="0 0 64 64" fill="none" xmlns="http://www.w3.org/2000/svg">
<path d="M51.2 20.8C51.2 25.2183 47.6183 28.8 43.2 28.8C38.7817 28.8 35.2 25.2183 35.2 20.8C35.2 16.3817 38.7817 12.8 43.2 12.8C47.6183 12.8 51.2 16.3817 51.2 20.8Z" fill="#094074"/>
<path d="M22.4 35.2H6.4C2.86538 35.2 0 38.0654 0 41.6V57.6H41.6V54.4C41.6 43.7961 33.0039 35.2 22.4 35.2Z" fill="#094074"/>
<path d="M64 51.2C64 42.3634 56.8366 35.2 48 35.2H32C41.6 35.2 51.2 43.0587 51.2 55.2935V57.6H64V51.2Z" fill="#094074"/>
<path d="M28.8 17.6C28.8 23.7856 23.7856 28.8 17.6 28.8C11.4144 28.8 6.4 23.7856 6.4 17.6C6.4 11.4144 11.4144 6.39999 17.6 6.39999C23.7856 6.39999 28.8 11.4144 28.8 17.6Z" fill="#094074"/>
</svg>
