<svg width="333" height="248" viewBox="0 0 333 248" fill="none" xmlns="http://www.w3.org/2000/svg">
<path d="M332.086 217.45H0V217.616H332.086V217.45Z" fill="#EBEBEB"/>
<path d="M56.8392 223.773H34.8418V223.939H56.8392V223.773Z" fill="#EBEBEB"/>
<path d="M119.439 221.973H113.667V222.139H119.439V221.973Z" fill="#EBEBEB"/>
<path d="M70.2494 229.943H57.5039V230.109H70.2494V229.943Z" fill="#EBEBEB"/>
<path d="M298.811 228.827H270.125V228.993H298.811V228.827Z" fill="#EBEBEB"/>
<path d="M264.207 228.827H260.003V228.993H264.207V228.827Z" fill="#EBEBEB"/>
<path d="M246.335 226.024H184.115V226.19H246.335V226.024Z" fill="#EBEBEB"/>
<path d="M157.409 187.828H29.1704C28.1645 187.828 27.1999 187.428 26.4887 186.717C25.7775 186.006 25.3779 185.041 25.3779 184.035V3.75921C25.3867 2.75917 25.7901 1.80306 26.5004 1.09901C27.2106 0.394958 28.1703 -3.83399e-05 29.1704 2.79121e-09H157.409C158.415 2.79122e-09 159.379 0.399558 160.09 1.11077C160.802 1.82199 161.201 2.78661 161.201 3.79242V184.035C161.201 185.041 160.802 186.006 160.09 186.717C159.379 187.428 158.415 187.828 157.409 187.828ZM29.1704 0.132835C28.2091 0.134591 27.2878 0.517217 26.6081 1.19692C25.9284 1.87661 25.5457 2.79798 25.544 3.75921V184.035C25.5457 184.997 25.9284 185.918 26.6081 186.598C27.2878 187.277 28.2091 187.66 29.1704 187.662H157.409C158.37 187.66 159.291 187.277 159.971 186.598C160.651 185.918 161.033 184.997 161.035 184.035V3.75921C161.033 2.79798 160.651 1.87661 159.971 1.19692C159.291 0.517217 158.37 0.134591 157.409 0.132835H29.1704Z" fill="#EBEBEB"/>
<path d="M301.075 187.828H172.824C171.818 187.826 170.855 187.426 170.144 186.715C169.433 186.004 169.033 185.041 169.031 184.035V3.75921C169.042 2.75971 169.446 1.80461 170.156 1.10093C170.866 0.397247 171.824 0.0016925 172.824 0H301.075C302.073 0.00345668 303.029 0.399997 303.737 1.10367C304.444 1.80735 304.846 2.76146 304.854 3.75921V184.035C304.854 185.039 304.457 186.001 303.748 186.712C303.04 187.423 302.079 187.824 301.075 187.828ZM172.824 0.132835C171.862 0.134591 170.941 0.517217 170.261 1.19692C169.582 1.87661 169.199 2.79798 169.197 3.75921V184.035C169.199 184.997 169.582 185.918 170.261 186.598C170.941 187.277 171.862 187.66 172.824 187.662H301.075C302.036 187.66 302.958 187.277 303.638 186.598C304.317 185.918 304.7 184.997 304.702 184.035V3.75921C304.7 2.79798 304.317 1.87661 303.638 1.19692C302.958 0.517217 302.036 0.134591 301.075 0.132835H172.824Z" fill="#EBEBEB"/>
<path d="M168.879 12.4067H40.7734V155.197H168.879V12.4067Z" fill="#EBEBEB"/>
<path d="M173.037 12.4067H42.7129V155.197H173.037V12.4067Z" fill="#F5F5F5"/>
<path d="M168.879 155.197H40.7734V162.935H168.879V155.197Z" fill="#EBEBEB"/>
<path d="M192.816 155.197H62.4922V162.935H192.816V155.197Z" fill="#F0F0F0"/>
<path d="M167.212 149.366V18.2315L48.5443 18.2315L48.5443 149.366H167.212Z" fill="#FAFAFA"/>
<path d="M53.3662 149.366L87.5843 18.2315H103.737L69.5189 149.366H53.3662Z" fill="white"/>
<path d="M51.2475 93.6482C51.1366 93.6482 51.0301 93.6041 50.9517 93.5257C50.8732 93.4472 50.8291 93.3408 50.8291 93.2298V22.0239C50.8419 21.9229 50.8911 21.83 50.9676 21.7626C51.044 21.6953 51.1423 21.6581 51.2442 21.6581C51.3461 21.6581 51.4444 21.6953 51.5209 21.7626C51.5973 21.83 51.6465 21.9229 51.6593 22.0239V93.2032C51.6629 93.2598 51.655 93.3166 51.636 93.37C51.617 93.4234 51.5874 93.4724 51.5488 93.514C51.5103 93.5556 51.4638 93.589 51.412 93.6121C51.3602 93.6351 51.3042 93.6474 51.2475 93.6482Z" fill="#F1F1F1"/>
<path d="M72.9854 149.366L107.203 18.2315H113.5L79.2883 149.366H72.9854Z" fill="white"/>
<path d="M167.219 149.372V18.2382H166.482V149.372H167.219Z" fill="#EBEBEB"/>
<path d="M174.418 24.5279H46.3124L45.7744 20.4963H173.887L174.418 24.5279Z" fill="#EBEBEB"/>
<path d="M174.418 27.4834H46.3124L45.7744 23.4519H173.887L174.418 27.4834Z" fill="#EBEBEB"/>
<path d="M174.418 31.0235H46.3124L45.7744 26.9919H173.887L174.418 31.0235Z" fill="#EBEBEB"/>
<path d="M174.418 34.962H46.3124L45.7744 30.9305H173.887L174.418 34.962Z" fill="#EBEBEB"/>
<path d="M174.418 39.6843H46.3124L45.7744 35.6527H173.887L174.418 39.6843Z" fill="#EBEBEB"/>
<path d="M174.418 44.9976H46.3124L45.7744 40.9661H173.887L174.418 44.9976Z" fill="#EBEBEB"/>
<path d="M51.5859 146.277H65.9055V147.692H64.9956L64.2517 155.197H53.2331L52.4892 147.692H51.5859V146.277Z" fill="#EBEBEB"/>
<path d="M50.5299 133.133C50.344 132.509 50.1779 131.878 50.0185 131.247C49.082 132.462 48.1721 132.768 47.4947 132.768H47.2755C45.9471 132.635 44.6188 131.333 43.8284 129.281C43.8102 129.244 43.8008 129.203 43.8008 129.162C43.8008 129.12 43.8102 129.079 43.8284 129.042C43.846 129.005 43.872 128.972 43.9043 128.947C43.9365 128.922 43.9742 128.904 44.0144 128.896C44.9779 128.651 45.9823 128.611 46.9619 128.781C47.9416 128.95 48.8745 129.324 49.6997 129.879C49.5735 129.281 49.4739 128.683 49.3875 128.086C49.1687 128.128 48.9463 128.151 48.7234 128.152C46.5316 128.152 44.9177 126.193 44.8446 126.1C44.8166 126.064 44.7972 126.022 44.788 125.978C44.7788 125.934 44.78 125.888 44.7916 125.844C44.8032 125.8 44.8249 125.76 44.8548 125.726C44.8847 125.692 44.9222 125.665 44.9642 125.648C45.4755 125.388 46.037 125.242 46.6101 125.219C47.1832 125.196 47.7545 125.297 48.285 125.515C48.8593 125.803 49.3253 126.269 49.6134 126.844C50.0255 125.586 50.7758 124.466 51.7821 123.606C52.7884 122.746 54.0119 122.179 55.3186 121.969C55.3592 121.959 55.4016 121.958 55.4426 121.966C55.4835 121.975 55.522 121.993 55.5552 122.018C55.5883 122.044 55.6153 122.077 55.6342 122.114C55.653 122.151 55.6632 122.192 55.664 122.234C55.7769 124.227 55.7171 126.664 54.2227 127.827C53.601 128.284 52.8425 128.519 52.0708 128.491C51.378 128.474 50.6903 128.367 50.0252 128.172C50.2387 129.609 50.5449 131.031 50.9417 132.429C52.4013 130.444 54.4703 128.991 56.8329 128.291C56.9069 128.273 56.985 128.284 57.0508 128.323C57.1165 128.361 57.1647 128.424 57.1849 128.497C57.6366 130.211 57.4041 131.606 56.5208 132.522C56.0727 132.927 55.5478 133.237 54.9772 133.435C54.4067 133.632 53.8022 133.712 53.1999 133.671C52.5506 133.663 51.9035 133.594 51.2672 133.465C51.6325 134.641 52.0442 135.79 52.4826 136.886C53.3792 136.095 56.0093 134.083 58.8719 134.927C58.9113 134.937 58.9479 134.956 58.979 134.983C59.01 135.009 59.0347 135.042 59.0513 135.079C59.0676 135.116 59.076 135.155 59.076 135.196C59.076 135.236 59.0676 135.275 59.0513 135.312C58.2742 137.211 57.3908 138.261 56.275 138.633C55.9787 138.727 55.6694 138.774 55.3585 138.772C54.5155 138.731 53.6941 138.492 52.9608 138.075C53.5851 139.523 54.2294 140.884 54.8537 142.093C55.5179 141.369 57.3643 139.868 60.6253 140.565C60.6939 140.58 60.7548 140.619 60.7964 140.675C60.8381 140.731 60.8575 140.801 60.8512 140.871C60.7788 141.48 60.5482 142.059 60.1823 142.55C59.8164 143.042 59.3279 143.43 58.7657 143.674C58.346 143.854 57.894 143.947 57.4373 143.946C56.7934 143.935 56.161 143.774 55.5909 143.474C57.0388 146.131 58.1945 147.831 58.2476 147.871C58.2784 147.934 58.2854 148.007 58.2674 148.074C58.2493 148.142 58.2074 148.201 58.1494 148.241C58.0913 148.28 58.0209 148.298 57.9511 148.29C57.8814 148.282 57.8168 148.249 57.7694 148.197C56.6183 146.454 55.5607 144.652 54.6013 142.797C54.5808 142.771 54.5651 142.742 54.5548 142.711C54.3622 142.345 54.1762 141.973 53.9836 141.588C53.6552 142.083 53.2131 142.492 52.6943 142.781C52.1755 143.07 51.595 143.23 51.0015 143.249C50.8798 143.255 50.7579 143.255 50.6362 143.249C49.9801 143.173 49.3576 142.918 48.8373 142.511C48.3169 142.105 47.919 141.562 47.6873 140.944C47.6634 140.88 47.6637 140.81 47.6882 140.746C47.7127 140.682 47.7596 140.63 47.8201 140.599C48.6637 140.123 49.6086 139.854 50.5765 139.816C51.5444 139.778 52.5074 139.971 53.3859 140.379C52.9741 139.496 52.5556 138.56 52.1571 137.583C52.1348 137.546 52.1191 137.506 52.1107 137.464C51.9977 137.185 51.8848 136.906 51.7786 136.627C50.8222 137.836 49.8657 138.427 48.8761 138.427C47.6673 138.427 46.4519 137.537 45.1501 135.71C45.1054 135.649 45.0866 135.573 45.0978 135.499C45.109 135.424 45.1493 135.357 45.2099 135.312C47.2556 133.778 50.065 134.827 51.3402 135.438C51.0812 134.721 50.8354 133.983 50.6096 133.233L50.5299 133.133Z" fill="#EBEBEB"/>
<path d="M65.5343 140.858C65.0782 140.999 64.6038 141.073 64.1263 141.077C63.5399 141.084 62.9598 140.956 62.4308 140.703C61.9018 140.45 61.4383 140.078 61.076 139.617C60.7138 139.156 60.4626 138.618 60.342 138.044C60.2213 137.47 60.2345 136.876 60.3803 136.308C60.3962 136.242 60.4364 136.184 60.493 136.146C60.5496 136.107 60.6184 136.092 60.6859 136.102C61.804 136.213 62.8791 136.59 63.8211 137.203C64.763 137.815 65.5441 138.645 66.0989 139.622C66.763 138.174 67.3674 136.64 67.912 135.046C67.2156 135.444 66.435 135.672 65.6339 135.71C65.3177 135.711 65.0035 135.659 64.7041 135.557C63.1234 135.02 62.1736 133.087 61.3832 131.074C61.3668 131.037 61.3583 130.996 61.3583 130.955C61.3583 130.914 61.3668 130.873 61.3832 130.835C61.4002 130.799 61.4251 130.767 61.4562 130.742C61.4872 130.716 61.5236 130.698 61.5626 130.689C64.8104 129.786 67.4405 132.888 68.2574 134.01C68.6868 132.673 69.0438 131.314 69.3267 129.939C68.65 130.066 67.9631 130.133 67.2744 130.138C66.5882 130.186 65.8993 130.093 65.2504 129.865C64.6015 129.636 64.0064 129.277 63.5019 128.81C62.5323 127.78 62.2998 126.239 62.8378 124.353C62.847 124.316 62.8635 124.281 62.8863 124.251C62.9091 124.221 62.9378 124.195 62.9705 124.176C63.0033 124.157 63.0396 124.144 63.0772 124.139C63.1149 124.134 63.1531 124.137 63.1898 124.147C65.7631 124.961 67.9999 126.593 69.5592 128.796L69.6787 128.059C69.6872 127.997 69.7151 127.939 69.7584 127.893C69.8892 127.424 70.1146 126.987 70.4207 126.609C70.7269 126.231 71.1073 125.92 71.5384 125.695C72.5015 125.236 73.7169 125.303 75.1449 125.887C75.1874 125.905 75.2253 125.932 75.2553 125.967C75.2853 126.002 75.3067 126.043 75.3177 126.088C75.3287 126.132 75.329 126.179 75.3186 126.224C75.3082 126.268 75.2874 126.31 75.2578 126.345C75.1714 126.445 73.4047 128.537 71.0204 128.537C70.7661 128.533 70.5128 128.506 70.2632 128.457C70.1569 129.122 70.0308 129.826 69.878 130.503C70.7957 129.898 71.8316 129.494 72.917 129.319C74.0025 129.144 75.1127 129.201 76.1743 129.487C76.2141 129.498 76.2511 129.517 76.2828 129.544C76.3146 129.57 76.3404 129.603 76.3586 129.64C76.3768 129.677 76.3869 129.717 76.3884 129.758C76.3898 129.8 76.3825 129.841 76.367 129.879C75.4371 132.124 74.0091 133.532 72.528 133.658H72.3288C71.5783 133.658 70.5687 133.313 69.5393 131.931C69.1266 133.505 68.6345 135.056 68.0648 136.58C69.4596 135.916 72.5945 134.78 74.8327 136.514C74.8909 136.561 74.9288 136.628 74.9387 136.703C74.9486 136.777 74.9297 136.852 74.8858 136.912C73.4446 138.905 72.103 139.841 70.7945 139.841C69.7053 139.841 68.6626 139.177 67.6265 137.802C67.0287 139.29 66.3911 140.705 65.7535 142.013C67.1416 141.15 68.6758 141.283 70.4824 142.425C70.5215 142.45 70.5539 142.485 70.577 142.525C70.6001 142.566 70.6132 142.611 70.6152 142.657C70.6163 142.705 70.606 142.752 70.5852 142.795C70.5644 142.838 70.5337 142.875 70.4957 142.903C69.4054 143.642 68.1319 144.065 66.8162 144.125C66.1329 144.137 65.4636 143.932 64.9033 143.541C63.6711 145.933 62.296 148.248 60.7855 150.475C60.7556 150.518 60.7159 150.553 60.6697 150.577C60.6234 150.601 60.572 150.614 60.5198 150.614C60.4552 150.614 60.3924 150.593 60.3405 150.554C60.3059 150.531 60.2765 150.5 60.2537 150.465C60.231 150.429 60.2155 150.39 60.2081 150.349C60.2007 150.307 60.2016 150.265 60.2106 150.224C60.2196 150.183 60.2367 150.144 60.2608 150.109C62.2549 147.166 64.018 144.073 65.5343 140.858Z" fill="#EBEBEB"/>
<path d="M283.88 63.4948H253.826V96.4975H283.88V63.4948Z" fill="#EBEBEB"/>
<path d="M280.758 65.6002C280.73 65.6089 280.7 65.6089 280.672 65.6002C280.592 65.5538 272.576 60.785 270.045 60.785C267.515 60.785 259.844 65.5538 259.771 65.6002C259.732 65.623 259.687 65.6301 259.644 65.6202C259.6 65.6103 259.563 65.5842 259.538 65.5471C259.526 65.529 259.518 65.5086 259.514 65.4872C259.51 65.4658 259.511 65.4439 259.516 65.4227C259.521 65.4016 259.53 65.3817 259.543 65.3642C259.556 65.3468 259.572 65.3322 259.591 65.3213C259.91 65.122 267.402 60.4529 270.045 60.4529C272.689 60.4529 280.533 65.1021 280.865 65.3146C280.902 65.3391 280.928 65.3769 280.938 65.4202C280.948 65.4635 280.941 65.509 280.918 65.5471C280.899 65.5699 280.874 65.587 280.846 65.5964C280.818 65.6058 280.787 65.6071 280.758 65.6002Z" fill="#EBEBEB"/>
<path d="M287.135 63.4948H256.092V96.4975H287.135V63.4948Z" fill="#F5F5F5"/>
<path d="M284.538 93.9006V66.0984H258.695V93.9006H284.538Z" fill="white"/>
<path d="M272.311 83.3535C271.895 83.3558 271.481 83.4025 271.075 83.493C271.179 83.1369 271.233 82.7681 271.235 82.3971C271.236 81.4978 270.918 80.6272 270.338 79.9397C270.628 80.0323 270.93 80.0816 271.235 80.0858C271.957 80.093 272.661 79.8556 273.231 79.4122C273.801 78.9688 274.205 78.3456 274.376 77.6437C274.548 76.9419 274.476 76.2028 274.174 75.5465C273.872 74.8902 273.357 74.3553 272.713 74.0289C272.068 73.7024 271.333 73.6035 270.625 73.7483C269.917 73.8931 269.279 74.273 268.814 74.8263C268.35 75.3796 268.086 76.0738 268.066 76.7959C268.046 77.5181 268.271 78.2258 268.704 78.804C268.181 78.6131 267.623 78.5386 267.069 78.5856C266.515 78.6326 265.977 78.7999 265.494 79.076C265.011 79.3521 264.594 79.7302 264.272 80.1841C263.95 80.6379 263.731 81.1565 263.63 81.7037C263.529 82.2509 263.549 82.8136 263.687 83.3524C263.826 83.8912 264.081 84.3932 264.434 84.8235C264.787 85.2537 265.229 85.6018 265.73 85.8435C266.232 86.0852 266.78 86.2146 267.336 86.2228C266.821 87.0985 266.551 88.0961 266.552 89.1119C266.552 90.2508 266.89 91.3641 267.523 92.3111C268.155 93.2581 269.055 93.9961 270.107 94.432C271.159 94.8678 272.317 94.9818 273.434 94.7596C274.551 94.5374 275.577 93.989 276.382 93.1837C277.188 92.3784 277.736 91.3523 277.958 90.2353C278.181 89.1183 278.066 87.9605 277.631 86.9083C277.195 85.8561 276.457 84.9567 275.51 84.324C274.563 83.6913 273.449 83.3535 272.311 83.3535Z" fill="#F5F5F5"/>
<path d="M266.744 71.0133C266.746 71.6401 266.561 72.2533 266.214 72.7752C265.866 73.297 265.372 73.7041 264.793 73.9449C264.215 74.1857 263.577 74.2494 262.962 74.1279C262.347 74.0064 261.782 73.7052 261.338 73.2624C260.895 72.8196 260.592 72.2551 260.47 71.6404C260.347 71.0257 260.409 70.3883 260.649 69.8091C260.888 69.2298 261.294 68.7346 261.816 68.3862C262.337 68.0378 262.949 67.8518 263.576 67.8518C264.415 67.8536 265.219 68.187 265.812 68.7793C266.406 69.3716 266.741 70.1747 266.744 71.0133Z" fill="#F5F5F5"/>
<path d="M243.173 32.1858H209.207V69.479H243.173V32.1858Z" fill="#EBEBEB"/>
<path d="M238.983 33.7133C238.954 33.7201 238.925 33.7201 238.896 33.7133C238.817 33.6602 230.793 28.8914 228.27 28.8914C225.746 28.8914 218.074 33.6602 218.001 33.7067C217.983 33.7188 217.962 33.7271 217.94 33.7309C217.918 33.7348 217.896 33.7343 217.874 33.7293C217.852 33.7244 217.832 33.7151 217.814 33.7021C217.796 33.6891 217.78 33.6726 217.769 33.6536C217.747 33.6164 217.74 33.572 217.75 33.5298C217.759 33.4876 217.785 33.451 217.822 33.4277C218.141 33.2285 225.626 28.5594 228.27 28.5594C230.913 28.5594 238.763 33.2086 239.095 33.4277C239.114 33.4386 239.131 33.4532 239.144 33.4707C239.157 33.4881 239.166 33.508 239.171 33.5292C239.176 33.5503 239.176 33.5723 239.173 33.5937C239.169 33.615 239.161 33.6354 239.149 33.6536C239.13 33.6788 239.104 33.6979 239.075 33.7085C239.045 33.7192 239.013 33.7208 238.983 33.7133Z" fill="#EBEBEB"/>
<path d="M246.846 32.1858H211.765V69.479H246.846V32.1858Z" fill="#F5F5F5"/>
<path d="M243.91 66.5368V35.1214H214.707V66.5368H243.91Z" fill="white"/>
<path d="M218.884 38.5884H218.372C217.789 38.5884 217.316 39.0612 217.316 39.6444V67.3935C217.316 67.9767 217.789 68.4495 218.372 68.4495H218.884C219.467 68.4495 219.94 67.9767 219.94 67.3935V39.6444C219.94 39.0612 219.467 38.5884 218.884 38.5884Z" fill="#F5F5F5"/>
<path d="M227.379 53.5189H225.526H225.34V47.6942C225.34 47.4141 225.229 47.1455 225.031 46.9474C224.833 46.7494 224.564 46.6381 224.284 46.6381H222.438C222.158 46.6381 221.889 46.7494 221.691 46.9474C221.493 47.1455 221.382 47.4141 221.382 47.6942V67.3736C221.382 67.6536 221.493 67.9223 221.691 68.1203C221.889 68.3183 222.158 68.4296 222.438 68.4296H224.284C224.509 68.4306 224.728 68.3583 224.909 68.2237C225.086 68.3591 225.303 68.4316 225.526 68.4296H227.379C227.659 68.4296 227.928 68.3183 228.126 68.1203C228.324 67.9223 228.435 67.6536 228.435 67.3736V54.575C228.435 54.4363 228.408 54.299 228.355 54.1709C228.302 54.0427 228.224 53.9263 228.126 53.8282C228.028 53.7302 227.912 53.6524 227.783 53.5993C227.655 53.5463 227.518 53.5189 227.379 53.5189Z" fill="#F5F5F5"/>
<path d="M237.528 45.5954H230.687C230.104 45.5954 229.631 46.0682 229.631 46.6514V67.3869C229.631 67.9701 230.104 68.4429 230.687 68.4429H237.528C238.111 68.4429 238.584 67.9701 238.584 67.3869V46.6514C238.584 46.0682 238.111 45.5954 237.528 45.5954Z" fill="#F5F5F5"/>
<path d="M239.168 43.0981C240.954 43.0981 242.403 41.65 242.403 39.8636C242.403 38.0772 240.954 36.6291 239.168 36.6291C237.382 36.6291 235.934 38.0772 235.934 39.8636C235.934 41.65 237.382 43.0981 239.168 43.0981Z" fill="#F5F5F5"/>
<path d="M121.637 146.231C121.637 151.179 126.99 155.197 133.592 155.197C140.194 155.197 145.547 151.179 145.547 146.231H121.637Z" fill="#EBEBEB"/>
<path d="M166.043 247.444C237.164 247.444 294.819 244.078 294.819 239.925C294.819 235.773 237.164 232.407 166.043 232.407C94.9217 232.407 37.2666 235.773 37.2666 239.925C37.2666 244.078 94.9217 247.444 166.043 247.444Z" fill="#F5F5F5"/>
<path d="M227.565 240.663C234.193 240.663 239.567 240.333 239.567 239.925C239.567 239.518 234.193 239.188 227.565 239.188C220.937 239.188 215.563 239.518 215.563 239.925C215.563 240.333 220.937 240.663 227.565 240.663Z" fill="#E6E6E6"/>
<path d="M146.038 222.491L250.958 222.491C261.17 222.491 269.448 214.212 269.448 204V144.703C269.448 134.491 261.17 126.213 250.958 126.213L146.038 126.213C135.826 126.213 127.548 134.491 127.548 144.703V204C127.548 214.212 135.826 222.491 146.038 222.491Z" fill="#263238"/>
<path d="M232.66 239.925H222.73L202.553 192.118H217.749L232.66 239.925Z" fill="#263238"/>
<path d="M272.438 169.477H271.773V174.352H272.438V169.477Z" fill="#407BFF"/>
<path opacity="0.2" d="M272.438 169.477H271.773V174.352H272.438V169.477Z" fill="black"/>
<path d="M272.438 148.695H271.773V166.149H272.438V148.695Z" fill="#407BFF"/>
<path opacity="0.2" d="M272.438 148.695H271.773V166.149H272.438V148.695Z" fill="black"/>
<path d="M188.055 123.224H179.049V123.888H188.055V123.224Z" fill="#407BFF"/>
<path opacity="0.2" d="M188.055 123.224H179.049V123.888H188.055V123.224Z" fill="black"/>
<path d="M259.985 192.118L232.641 239.925L212.464 192.118H259.985Z" fill="#407BFF"/>
<path opacity="0.2" d="M259.993 192.118L232.649 239.925L212.472 192.118H259.993Z" fill="black"/>
<path d="M154.388 222.491H250.959C261.171 222.491 269.449 214.212 269.449 204V144.703C269.449 134.491 261.171 126.213 250.959 126.213L154.388 126.213C144.176 126.213 135.898 134.491 135.898 144.703V204C135.898 214.212 144.176 222.491 154.388 222.491Z" fill="#407BFF"/>
<path opacity="0.2" d="M154.388 222.491H250.959C261.171 222.491 269.449 214.212 269.449 204V144.703C269.449 134.491 261.171 126.213 250.959 126.213L154.388 126.213C144.176 126.213 135.898 134.491 135.898 144.703V204C135.898 214.212 144.176 222.491 154.388 222.491Z" fill="black"/>
<path opacity="0.7" d="M187.796 222.491H170.129L188.819 126.213H206.492L187.796 222.491Z" fill="#407BFF"/>
<path opacity="0.7" d="M203.756 222.491H193.707L212.403 126.213H222.446L203.756 222.491Z" fill="#407BFF"/>
<path d="M245.492 157.276H196.396C195.069 157.228 193.812 156.667 192.89 155.712C191.968 154.756 191.453 153.48 191.453 152.152C191.453 150.824 191.968 149.548 192.89 148.592C193.812 147.636 195.069 147.076 196.396 147.028H245.492C246.18 147.003 246.866 147.117 247.51 147.364C248.153 147.61 248.74 147.983 249.236 148.462C249.732 148.94 250.126 149.513 250.395 150.147C250.665 150.781 250.804 151.463 250.804 152.152C250.804 152.841 250.665 153.523 250.395 154.157C250.126 154.791 249.732 155.364 249.236 155.842C248.74 156.32 248.153 156.694 247.51 156.94C246.866 157.187 246.18 157.301 245.492 157.276Z" fill="white"/>
<path d="M179.572 157.276H157.335C156.008 157.228 154.752 156.667 153.83 155.712C152.908 154.756 152.393 153.48 152.393 152.152C152.393 150.824 152.908 149.548 153.83 148.592C154.752 147.636 156.008 147.076 157.335 147.028H179.572C180.26 147.003 180.947 147.117 181.59 147.364C182.233 147.61 182.82 147.983 183.316 148.462C183.812 148.94 184.206 149.513 184.476 150.147C184.745 150.781 184.884 151.463 184.884 152.152C184.884 152.841 184.745 153.523 184.476 154.157C184.206 154.791 183.812 155.364 183.316 155.842C182.82 156.32 182.233 156.694 181.59 156.94C180.947 157.187 180.26 157.301 179.572 157.276Z" fill="white"/>
<path d="M245.491 178.875H162.549C161.222 178.827 159.966 178.266 159.044 177.311C158.122 176.355 157.606 175.079 157.606 173.751C157.606 172.423 158.122 171.147 159.044 170.191C159.966 169.235 161.222 168.674 162.549 168.627H245.491C246.18 168.602 246.866 168.716 247.509 168.962C248.153 169.209 248.74 169.582 249.235 170.06C249.731 170.539 250.126 171.112 250.395 171.746C250.664 172.38 250.803 173.062 250.803 173.751C250.803 174.44 250.664 175.121 250.395 175.755C250.126 176.389 249.731 176.963 249.235 177.441C248.74 177.919 248.153 178.293 247.509 178.539C246.866 178.785 246.18 178.9 245.491 178.875Z" fill="white"/>
<path d="M245.491 200.467H207.069C205.742 200.419 204.485 199.858 203.563 198.903C202.641 197.947 202.126 196.671 202.126 195.343C202.126 194.015 202.641 192.739 203.563 191.783C204.485 190.827 205.742 190.267 207.069 190.219H245.491C246.18 190.194 246.866 190.308 247.509 190.555C248.153 190.801 248.74 191.174 249.236 191.653C249.731 192.131 250.126 192.704 250.395 193.338C250.664 193.972 250.803 194.654 250.803 195.343C250.803 196.032 250.664 196.714 250.395 197.348C250.126 197.982 249.731 198.555 249.236 199.033C248.74 199.511 248.153 199.885 247.509 200.131C246.866 200.378 246.18 200.492 245.491 200.467Z" fill="white"/>
<path opacity="0.1" d="M159.879 126.193C159.879 126.193 152.534 165.91 152.534 182.687C152.534 199.896 158.604 222.471 158.604 222.471H139.204L137.922 200.68C136.714 180.3 138.731 159.857 143.899 140.107L147.539 126.159L159.879 126.193Z" fill="black"/>
<path d="M149.764 239.925C149.764 240.709 138.871 241.347 125.435 241.347C111.999 241.347 101.106 240.683 101.106 239.925C101.106 239.168 111.999 238.504 125.435 238.504C138.871 238.504 149.764 239.142 149.764 239.925Z" fill="#E6E6E6"/>
<path d="M141.422 74.8721C139.363 75.1975 137.437 75.3635 135.445 75.5362C133.452 75.7089 131.46 75.7023 129.467 75.689C125.41 75.6884 121.366 75.243 117.406 74.3606C116.148 74.0177 114.971 73.426 113.945 72.6205C113.083 71.9571 112.271 71.2312 111.515 70.4487C110.119 68.978 108.832 67.4087 107.662 65.753C105.372 62.5492 103.331 59.1742 101.559 55.6576L104.049 54.1632C105.165 55.6708 106.314 57.2051 107.496 58.6729C108.679 60.1407 109.854 61.6152 111.103 63.0033C112.298 64.3744 113.576 65.6719 114.928 66.8887C115.553 67.4496 116.219 67.9625 116.921 68.4229C117.431 68.7841 118.003 69.0496 118.608 69.2067C120.38 69.5039 122.167 69.7057 123.961 69.8111C125.788 69.8908 127.627 69.9373 129.48 69.9107C131.333 69.8841 133.193 69.7845 135.046 69.6517C136.899 69.5188 138.792 69.3262 140.539 69.1137L141.422 74.8721Z" fill="#FF8B7B"/>
<path d="M147.4 69.479C142.345 66.4172 135.491 68.6421 135.491 68.6421L138.958 80.5972C138.958 80.5972 144.431 79.0564 146.576 76.7251C148.821 74.3142 150.448 71.3188 147.4 69.479Z" fill="#263238"/>
<path d="M104.474 55.4052L105.696 51.2873L99.9111 52.0046C100.287 53.6394 101.005 55.1762 102.017 56.5144L104.474 55.4052Z" fill="#FF8B7B"/>
<path d="M105.278 46.4854L100.462 47.3488L99.9111 52.0047L105.696 51.2873L105.278 46.4854Z" fill="#FF8B7B"/>
<path d="M170.998 31.7142C176.112 31.8205 174.677 36.0911 174.677 36.0911C174.677 36.0911 180.25 32.571 182.023 36.6822C183.796 40.7934 179.798 42.0952 177.46 42.7129C178.928 43.5564 179.008 46.2928 176.949 47.1894C174.89 48.086 171.443 45.6219 168.839 45.6552L166.275 42.6199C169.756 40.3617 165.877 31.6079 170.998 31.7142Z" fill="#263238"/>
<path d="M170.2 47.7673C172.432 48.1591 174.053 47.8802 173.614 45.4161C173.335 44.0481 172.715 42.7727 171.812 41.708C170.909 40.6434 169.751 39.8239 168.447 39.3256C165.631 38.2895 165 42.9387 165 42.9387L170.2 47.7673Z" fill="#407BFF"/>
<path d="M104.939 219.887L99.2402 219.23L100.376 206L106.075 206.65L104.939 219.887Z" fill="#FF8B7B"/>
<path d="M142.683 235.396L136.958 235.137L135.723 221.787L141.454 222.053L142.683 235.396Z" fill="#FF8B7B"/>
<path d="M136.739 233.403H143.181C143.292 233.402 143.4 233.441 143.484 233.513C143.568 233.585 143.623 233.685 143.64 233.795L144.37 238.896C144.384 239.024 144.371 239.154 144.331 239.277C144.291 239.4 144.226 239.514 144.14 239.61C144.053 239.705 143.947 239.782 143.829 239.834C143.711 239.886 143.583 239.913 143.454 239.912C141.209 239.872 140.133 239.746 137.29 239.746C135.55 239.746 132.999 239.925 130.595 239.925C128.191 239.925 128.065 237.548 129.061 237.329C133.557 236.365 134.268 235.031 135.782 233.762C136.048 233.532 136.387 233.405 136.739 233.403Z" fill="#263238"/>
<path d="M99.0478 217.144L105.444 216.387C105.555 216.372 105.667 216.398 105.76 216.461C105.853 216.523 105.92 216.618 105.949 216.726L107.277 221.701C107.305 221.827 107.306 221.957 107.28 222.084C107.254 222.211 107.202 222.331 107.127 222.436C107.051 222.541 106.955 222.629 106.844 222.695C106.732 222.76 106.608 222.802 106.48 222.816C104.248 223.042 103.159 223.042 100.343 223.374C98.6161 223.58 95.0295 224.185 92.6651 224.464C90.3006 224.742 89.8689 222.398 90.8386 222.066C95.1889 220.578 96.783 219.051 98.1445 217.609C98.3827 217.354 98.702 217.19 99.0478 217.144Z" fill="#263238"/>
<path d="M100.383 206L99.792 212.821L105.491 213.478L106.082 206.657L100.383 206Z" fill="#EA7063"/>
<path d="M141.454 222.053L135.723 221.794L136.36 228.674L142.092 228.933L141.454 222.053Z" fill="#EA7063"/>
<path d="M141.847 67.9581C141.847 67.9581 138.958 68.1374 135.046 101.997L157.448 108.346C159.66 99.121 161.241 93.4955 170.905 76.0211C167.952 74.4728 164.891 73.1409 161.746 72.0361C158.427 70.8352 155.026 69.8719 151.57 69.1536C147.087 68.3499 141.847 67.9581 141.847 67.9581Z" fill="#263238"/>
<path d="M163.984 60.3334C162.416 63.4218 160.072 69.2399 161.745 72.0693C161.745 72.0693 159.906 75.1378 153.829 73.3976C147.14 71.5047 151.57 69.1735 151.57 69.1735C155.469 69.3395 156.14 66.6032 156.22 63.8601L163.984 60.3334Z" fill="#FF8B7B"/>
<path d="M145.307 68.2902C147.141 68.4894 149.445 68.7883 151.571 69.1868C155.027 69.9034 158.427 70.8667 161.746 72.0693C163.652 72.7335 165.498 73.4641 167.019 74.1482C166.707 75.2573 164.509 81.029 151.431 77.7081C139.263 74.5732 143.919 69.4193 145.307 68.2902Z" fill="#FF8B7B"/>
<path d="M160.823 61.7679L156.233 63.8734C156.222 64.5111 156.155 65.1467 156.034 65.7729C157.482 65.9655 159.94 65.3146 160.504 63.8933C160.734 63.2089 160.842 62.4896 160.823 61.7679Z" fill="#EA7063"/>
<path d="M166.899 53.0607C165.525 58.58 165.066 60.9511 161.719 63.2956C156.684 66.829 150.195 63.9597 149.89 58.1217C149.611 52.8814 151.882 44.732 157.774 43.5099C159.068 43.2351 160.412 43.2959 161.676 43.6864C162.941 44.0769 164.085 44.7842 164.999 45.7411C165.913 46.6981 166.568 47.8729 166.901 49.1539C167.233 50.435 167.233 51.7798 166.899 53.0607Z" fill="#FF8B7B"/>
<path d="M165.106 58.3873C163.439 57.5239 162.104 55.0665 164.509 52.7817C164.509 52.7817 161.188 50.8888 162.855 48.2786C164.522 45.6684 171.184 43.4966 172.226 47.0034C173.269 50.5102 170.028 51.9515 170.028 51.9515C170.028 51.9515 172.685 56.0162 167.909 57.3578C167.909 57.3578 167.497 63.2225 164.07 60.6123L165.106 58.3873Z" fill="#263238"/>
<path d="M166.84 58.2612C166.524 59.3116 165.809 60.1963 164.848 60.7252C163.559 61.3894 162.603 60.3334 162.696 58.9585C162.782 57.7165 163.559 55.8635 164.974 55.7506C165.284 55.7313 165.594 55.7897 165.876 55.9205C166.158 56.0514 166.402 56.2505 166.588 56.4999C166.773 56.7492 166.893 57.0409 166.937 57.3485C166.981 57.6561 166.948 57.9698 166.84 58.2612Z" fill="#FF8B7B"/>
<path d="M135.046 101.997C135.046 101.997 109.024 132.688 104.62 149.611C100.037 167.212 97.9785 210.715 97.9785 210.715L106.932 211.871C106.932 211.871 112.909 172.067 120.434 155.848C128.444 138.579 151.484 106.659 151.484 106.659L135.046 101.997Z" fill="#407BFF"/>
<path d="M108.127 212.017L96.7364 210.529L96.5371 207.408L109.07 209.951L108.127 212.017Z" fill="#407BFF"/>
<path opacity="0.3" d="M108.127 212.017L96.7364 210.529L96.5371 207.408L109.07 209.951L108.127 212.017Z" fill="black"/>
<path opacity="0.2" d="M134.601 115.951C132.472 123.491 130.87 131.169 129.806 138.931C132.183 135.079 134.687 131.181 137.112 127.488C137.995 125.535 138.898 123.602 139.768 121.716C139.768 121.716 139.768 121.676 139.768 121.65L134.601 115.951Z" fill="black"/>
<path d="M140.964 103.671C140.964 103.671 133.432 142.438 130.709 164.715C128.504 182.714 135.445 226.37 135.445 226.37L142.91 226.828C142.91 226.828 141.336 187.841 144.803 170.407C153.583 126.299 161.792 120.381 157.422 108.346L140.964 103.671Z" fill="#407BFF"/>
<path d="M143.833 226.881L134.169 226.29L133.718 223.54L144.185 224.63L143.833 226.881Z" fill="#407BFF"/>
<path opacity="0.3" d="M143.833 226.881L134.169 226.29L133.718 223.54L144.185 224.63L143.833 226.881Z" fill="black"/>
<path d="M158.159 107.124L158.597 109.416C158.631 109.595 158.405 109.701 158.146 109.628L134.654 102.986C134.448 102.933 134.309 102.787 134.335 102.654L134.701 100.595C134.701 100.449 134.933 100.383 135.152 100.443L157.84 106.872C157.909 106.886 157.974 106.916 158.03 106.96C158.085 107.004 158.129 107.06 158.159 107.124Z" fill="#407BFF"/>
<path opacity="0.4" d="M158.159 107.124L158.597 109.416C158.631 109.595 158.405 109.701 158.146 109.628L134.654 102.986C134.448 102.933 134.309 102.787 134.335 102.654L134.701 100.595C134.701 100.449 134.933 100.383 135.152 100.443L157.84 106.872C157.909 106.886 157.974 106.916 158.03 106.96C158.085 107.004 158.129 107.06 158.159 107.124Z" fill="black"/>
<path d="M154.393 108.798L154.997 108.971C155.117 109.004 155.23 108.971 155.243 108.891L155.695 106.234C155.695 106.155 155.622 106.062 155.502 106.028L154.891 105.856C154.771 105.823 154.665 105.856 154.652 105.935L154.194 108.592C154.18 108.672 154.273 108.765 154.393 108.798Z" fill="#407BFF"/>
<path d="M136.295 103.671L136.906 103.843C137.025 103.876 137.138 103.843 137.152 103.764L137.603 101.107C137.603 101.034 137.53 100.941 137.404 100.908L136.8 100.735C136.68 100.695 136.567 100.735 136.554 100.815L136.102 103.471C136.089 103.544 136.155 103.611 136.295 103.671Z" fill="#407BFF"/>
<path d="M145.347 106.267L145.951 106.44C146.071 106.44 146.184 106.44 146.197 106.36L146.649 103.704C146.649 103.624 146.576 103.531 146.456 103.498L145.845 103.325C145.726 103.285 145.613 103.325 145.599 103.405L145.148 106.062C145.135 106.108 145.221 106.201 145.347 106.267Z" fill="#407BFF"/>
<path d="M158.139 53.0673C158.053 53.5189 157.747 53.8444 157.475 53.7913C157.203 53.7381 157.003 53.3197 157.09 52.8681C157.176 52.4164 157.482 52.0843 157.754 52.1441C158.026 52.2039 158.219 52.609 158.139 53.0673Z" fill="#263238"/>
<path d="M152.998 52.1175C152.912 52.5758 152.607 52.9013 152.334 52.8415C152.062 52.7817 151.863 52.3766 151.949 51.9249C152.035 51.4733 152.341 51.1412 152.613 51.1943C152.886 51.2475 153.078 51.6659 152.998 52.1175Z" fill="#263238"/>
<path d="M152.759 51.2475L151.729 50.7294C151.729 50.7294 152.095 51.6858 152.759 51.2475Z" fill="#263238"/>
<path d="M154.214 53.1337C153.616 54.0955 152.89 54.9714 152.056 55.7373C152.258 55.9449 152.503 56.1059 152.773 56.2092C153.044 56.3124 153.334 56.3554 153.623 56.335L154.214 53.1337Z" fill="#FF5652"/>
<path d="M155.695 58.5202C155.425 58.5183 155.156 58.4917 154.891 58.4405C154.857 58.434 154.827 58.4144 154.807 58.3858C154.787 58.3572 154.779 58.322 154.785 58.2877C154.792 58.2518 154.812 58.2198 154.842 58.1987C154.872 58.1776 154.908 58.169 154.944 58.1748C155.508 58.2905 156.091 58.2721 156.646 58.121C157.201 57.9698 157.712 57.6902 158.139 57.3047C158.166 57.283 158.199 57.2717 158.233 57.2731C158.268 57.2745 158.3 57.2884 158.325 57.3122C158.349 57.336 158.364 57.368 158.367 57.4022C158.369 57.4363 158.359 57.4702 158.338 57.4973C157.621 58.1653 156.675 58.5316 155.695 58.5202Z" fill="#263238"/>
<path d="M160.066 51.6925C160.016 51.6928 159.968 51.6793 159.925 51.6535C159.883 51.6277 159.849 51.5906 159.827 51.5464C159.682 51.2375 159.466 50.9671 159.197 50.7571C158.928 50.5471 158.614 50.4034 158.279 50.3376C158.241 50.3376 158.203 50.3295 158.168 50.3139C158.133 50.2983 158.102 50.2754 158.076 50.2469C158.051 50.2184 158.031 50.1848 158.02 50.1483C158.008 50.1118 158.004 50.0733 158.009 50.0352C158.013 49.9971 158.025 49.9604 158.044 49.9274C158.064 49.8944 158.09 49.8658 158.121 49.8436C158.152 49.8213 158.188 49.8059 158.225 49.7983C158.263 49.7908 158.302 49.7912 158.339 49.7996C158.767 49.8708 159.172 50.0445 159.519 50.3059C159.866 50.5672 160.145 50.9085 160.331 51.3006C160.364 51.365 160.37 51.4395 160.347 51.508C160.325 51.5764 160.276 51.6332 160.212 51.6659C160.166 51.6875 160.116 51.6967 160.066 51.6925Z" fill="#263238"/>
<path d="M151.146 49.3281C151.111 49.3279 151.076 49.3208 151.045 49.3071C151.013 49.2934 150.984 49.2734 150.96 49.2483C150.934 49.2235 150.913 49.1937 150.898 49.1605C150.884 49.1274 150.877 49.0918 150.877 49.0557C150.877 49.0197 150.884 48.9841 150.898 48.9509C150.913 48.9178 150.934 48.888 150.96 48.8631C151.253 48.5476 151.618 48.3066 152.023 48.1599C152.429 48.0133 152.863 47.9652 153.291 48.0196C153.36 48.0356 153.421 48.0775 153.461 48.1368C153.5 48.1961 153.515 48.2682 153.503 48.3384C153.497 48.3737 153.484 48.4072 153.464 48.4372C153.445 48.4671 153.419 48.4928 153.389 48.5126C153.36 48.5325 153.326 48.5461 153.291 48.5527C153.256 48.5593 153.22 48.5587 153.185 48.551C152.848 48.5101 152.507 48.5489 152.189 48.6643C151.87 48.7797 151.584 48.9684 151.352 49.2151C151.328 49.2481 151.297 49.2754 151.261 49.2949C151.226 49.3145 151.186 49.3258 151.146 49.3281Z" fill="#263238"/>
<path d="M171.602 82.3108C172.053 84.3432 172.339 86.256 172.605 88.2352C172.87 90.2144 173.01 92.2202 173.123 94.1729C173.358 98.2237 173.151 102.288 172.505 106.294C172.241 107.571 171.721 108.782 170.978 109.854C170.377 110.754 169.711 111.608 168.985 112.411C167.603 113.899 166.118 115.289 164.542 116.569C161.478 119.05 158.227 121.291 154.818 123.27L153.178 120.879C154.612 119.67 156.074 118.428 157.468 117.167C158.863 115.905 160.264 114.629 161.566 113.301C162.865 112.024 164.085 110.669 165.219 109.243C165.739 108.588 166.21 107.896 166.627 107.171C166.952 106.638 167.177 106.051 167.291 105.437C167.483 103.65 167.576 101.854 167.57 100.057C167.57 98.2243 167.471 96.3846 167.331 94.5382C167.192 92.6918 166.979 90.8454 166.733 88.999C166.488 87.1526 166.182 85.2796 165.863 83.5528L171.602 82.3108Z" fill="#FF8B7B"/>
<path d="M170.904 76.0211C172.95 77.3495 173.461 85.8309 173.461 85.8309L162.987 89.5902C162.987 89.5902 161.659 82.2378 163.406 79.6276C165.246 76.858 168.56 74.5135 170.904 76.0211Z" fill="#263238"/>
<path d="M134.774 234.406C134.386 234.44 134 234.334 133.684 234.107C133.589 234.017 133.517 233.904 133.478 233.778C133.438 233.653 133.432 233.519 133.458 233.39C133.465 233.307 133.494 233.228 133.542 233.16C133.59 233.093 133.655 233.039 133.731 233.005C134.395 232.699 136.135 233.828 136.334 233.955C136.356 233.97 136.373 233.991 136.384 234.016C136.394 234.041 136.398 234.068 136.394 234.094C136.388 234.12 136.374 234.143 136.356 234.162C136.337 234.181 136.314 234.194 136.288 234.2C135.793 234.326 135.285 234.395 134.774 234.406ZM134.016 233.224C133.959 233.212 133.901 233.212 133.844 233.224C133.81 233.238 133.781 233.262 133.761 233.293C133.741 233.324 133.73 233.36 133.731 233.397C133.709 233.482 133.71 233.572 133.734 233.657C133.757 233.741 133.802 233.819 133.864 233.882C134.156 234.147 134.906 234.18 135.909 233.981C135.336 233.603 134.692 233.346 134.016 233.224Z" fill="#407BFF"/>
<path d="M136.262 234.207C136.24 234.214 136.217 234.214 136.195 234.207C135.644 233.895 134.601 232.659 134.734 232.015C134.753 231.908 134.81 231.811 134.894 231.742C134.978 231.672 135.084 231.635 135.193 231.637C135.295 231.623 135.399 231.632 135.498 231.663C135.597 231.694 135.688 231.746 135.764 231.816C136.388 232.367 136.428 234.021 136.428 234.087C136.428 234.111 136.422 234.135 136.41 234.156C136.399 234.177 136.382 234.194 136.361 234.207C136.346 234.214 136.329 234.217 136.312 234.217C136.295 234.217 136.278 234.214 136.262 234.207ZM135.285 231.882H135.219C135.046 231.882 135.013 231.975 135 232.042C134.92 232.434 135.571 233.37 136.116 233.802C136.13 233.159 135.944 232.528 135.584 231.995C135.502 231.921 135.396 231.881 135.285 231.882Z" fill="#407BFF"/>
<path d="M96.5244 218.426C96.2039 218.446 95.8846 218.37 95.6079 218.207C95.5079 218.137 95.4266 218.043 95.3711 217.934C95.3155 217.826 95.2874 217.705 95.2891 217.583C95.284 217.507 95.2985 217.431 95.3311 217.363C95.3636 217.294 95.4132 217.235 95.475 217.191C96.1392 216.726 98.5302 217.616 98.7959 217.722C98.8226 217.732 98.8455 217.75 98.861 217.774C98.8766 217.798 98.884 217.827 98.8822 217.855C98.8821 217.883 98.873 217.911 98.8563 217.933C98.8396 217.956 98.8161 217.973 98.7892 217.981C98.059 218.235 97.2965 218.385 96.5244 218.426ZM96.0462 217.33C95.9014 217.319 95.7563 217.349 95.6278 217.417C95.6037 217.434 95.5848 217.457 95.573 217.484C95.5613 217.511 95.5573 217.54 95.5614 217.569C95.5584 217.651 95.5756 217.732 95.6115 217.805C95.6475 217.878 95.701 217.941 95.7673 217.988C96.1458 218.254 97.0956 218.2 98.3243 217.842C97.5925 217.566 96.8257 217.394 96.0462 217.33Z" fill="#407BFF"/>
<path d="M98.7552 217.988H98.7154C97.9981 217.762 96.5103 216.693 96.5435 216.035C96.5435 215.876 96.6299 215.677 97.0018 215.59C97.1345 215.561 97.2717 215.559 97.4051 215.585C97.5386 215.61 97.6657 215.661 97.7789 215.736C98.5626 216.248 98.8748 217.762 98.888 217.828C98.8924 217.851 98.891 217.875 98.884 217.897C98.8771 217.919 98.8648 217.939 98.8482 217.955C98.8226 217.977 98.7893 217.989 98.7552 217.988ZM97.2276 215.829C97.1725 215.823 97.1167 215.823 97.0616 215.829C96.8158 215.882 96.8158 215.982 96.8092 216.015C96.8092 216.414 97.8187 217.271 98.5626 217.609C98.4313 216.968 98.1041 216.383 97.6261 215.936C97.5033 215.873 97.3653 215.845 97.2276 215.856V215.829Z" fill="#407BFF"/>
<path opacity="0.6" d="M123.217 50.1317C115.488 48.3335 107.418 48.6452 99.8511 51.0343C92.284 53.4234 85.498 57.8021 80.2029 63.7123C74.9077 69.6224 71.2981 76.847 69.7516 84.6301C68.205 92.4132 68.7784 100.469 71.4117 107.954L58.5068 121.69L78.0269 120.175C82.3416 125.825 87.9526 130.353 94.386 133.377C100.819 136.4 107.886 137.832 114.989 137.549C122.092 137.266 129.023 135.278 135.196 131.753C141.368 128.227 146.602 123.268 150.454 117.294C154.306 111.319 156.664 104.505 157.328 97.4278C157.992 90.3503 156.943 83.2169 154.269 76.6303C151.595 70.0436 147.376 64.1973 141.966 59.5851C136.557 54.973 130.117 51.7305 123.191 50.1317H123.217Z" fill="#407BFF"/>
<path opacity="0.1" d="M123.217 50.1317C115.488 48.3335 107.418 48.6452 99.8511 51.0343C92.284 53.4234 85.498 57.8021 80.2029 63.7123C74.9077 69.6224 71.2981 76.847 69.7516 84.6301C68.205 92.4132 68.7784 100.469 71.4117 107.954L58.5068 121.69L78.0269 120.175C82.3416 125.825 87.9526 130.353 94.386 133.377C100.819 136.4 107.886 137.832 114.989 137.549C122.092 137.266 129.023 135.278 135.196 131.753C141.368 128.227 146.602 123.268 150.454 117.294C154.306 111.319 156.664 104.505 157.328 97.4278C157.992 90.3503 156.943 83.2169 154.269 76.6303C151.595 70.0436 147.376 64.1973 141.966 59.5851C136.557 54.973 130.117 51.7305 123.191 50.1317H123.217Z" fill="black"/>
<path d="M113.267 135.431C106.784 135.43 100.388 133.937 94.5747 131.068C88.7609 128.199 83.6851 124.031 79.7401 118.887L79.036 117.93L64.1453 119.086C64.1267 119.085 64.1087 119.08 64.0925 119.07C64.0764 119.061 64.0626 119.048 64.0523 119.033C64.043 119.017 64.0381 118.998 64.0381 118.98C64.0381 118.961 64.043 118.943 64.0523 118.927L73.8887 108.479L73.457 107.237C71.2251 100.886 70.5477 94.0928 71.4814 87.4262C72.4151 80.7595 74.9328 74.4137 78.8236 68.9203C82.7144 63.4268 87.865 58.9458 93.844 55.8524C99.8229 52.7591 106.456 51.1436 113.188 51.1412C119.532 51.1383 125.795 52.5673 131.51 55.3218C137.225 58.0763 142.245 62.0852 146.195 67.0497C150.145 72.0142 152.923 77.8063 154.323 83.9941C155.723 90.1819 155.708 96.6059 154.28 102.787C152.17 112.079 146.959 120.374 139.504 126.308C132.049 132.242 122.795 135.46 113.267 135.431ZM79.0759 117.738C79.0903 117.738 79.1044 117.742 79.1171 117.749C79.1298 117.756 79.1407 117.766 79.1489 117.778L79.8928 118.754C83.8159 123.881 88.8672 128.036 94.655 130.896C100.443 133.756 106.812 135.244 113.267 135.245C123.565 135.233 133.499 131.433 141.176 124.571C148.854 117.708 153.74 108.261 154.903 98.0296C156.067 87.7978 153.426 77.4954 147.485 69.0842C141.544 60.6731 132.717 54.7406 122.685 52.4164C119.571 51.6946 116.385 51.3292 113.188 51.3272C106.488 51.3332 99.8863 52.9444 93.9367 56.0258C87.987 59.1072 82.8622 63.5691 78.9913 69.038C75.1203 74.5069 72.6159 80.8236 71.6877 87.4592C70.7595 94.0948 71.4345 100.856 73.6562 107.177L74.1079 108.473C74.1176 108.486 74.1229 108.502 74.1229 108.519C74.1229 108.536 74.1176 108.552 74.1079 108.566L64.3778 118.887L79.0693 117.744L79.0759 117.738Z" fill="white"/>
<path d="M128.597 85.7446C128.701 85.5042 128.722 85.2362 128.657 84.9826C128.592 84.729 128.445 84.5041 128.238 84.3432C125.946 82.6732 123.331 81.4993 120.56 80.8961C115.814 79.8021 110.828 80.636 106.696 83.2149C102.565 85.7938 99.6252 89.9069 98.5232 94.6511C96.9956 101.246 100.615 105.723 104.979 106.732C106.782 107.187 108.667 107.211 110.481 106.801C112.295 106.392 113.987 105.56 115.42 104.375C115.456 105.79 115.975 107.15 116.891 108.23C117.807 109.31 119.064 110.045 120.454 110.312C127.275 111.893 135.611 107.317 138.34 95.5212C141.283 82.8222 134.402 71.8833 121.616 68.9543C106.261 65.401 91.8616 74.8787 88.1289 91.0048C85.0206 104.448 92.2534 116.396 105.324 119.425C110.512 120.627 114.769 120.647 119.126 119.498C119.402 119.424 119.641 119.253 119.8 119.016C119.959 118.779 120.026 118.492 119.989 118.209L119.564 114.888C119.541 114.721 119.482 114.56 119.392 114.417C119.301 114.273 119.181 114.151 119.039 114.058C118.899 113.963 118.739 113.901 118.571 113.876C118.403 113.851 118.232 113.863 118.07 113.912C114.583 114.797 110.93 114.797 107.443 113.912C97.2679 111.554 92.094 102.767 94.578 92.0343C97.5668 79.1029 108.174 71.6708 119.817 74.3607C129.66 76.6388 134.315 84.3232 131.971 94.505C130.941 98.9483 128.823 102.429 126.153 104.062C125.172 104.744 123.961 105.01 122.785 104.8C122.609 104.771 122.443 104.7 122.3 104.592C122.158 104.484 122.044 104.344 121.968 104.182C121.683 103.598 121.477 102.01 123.297 98.0052L128.597 85.7446ZM118.316 86.7342C119.058 86.904 119.783 87.1442 120.481 87.4515L117.585 94.0932C115.951 97.9321 111.441 101.798 108.087 101.021C105.025 100.317 105.185 97.5602 105.55 95.9861C106.998 89.703 112.849 85.4723 118.316 86.7342Z" fill="white"/>
<path d="M154.42 120.375L149.386 117.519L150.455 123.25C150.455 123.25 153.949 124.406 155.675 122.759L154.42 120.375Z" fill="#FF8B7B"/>
<path d="M144.617 118.229L145.773 122.978L150.455 123.25L149.386 117.519L144.617 118.229Z" fill="#FF8B7B"/>
<path d="M157.88 52.1906L156.844 51.6725C156.844 51.6725 157.249 52.629 157.88 52.1906Z" fill="#263238"/>
<path d="M165 49.5671C162.157 49.3878 160.072 48.1391 159.793 46.4986C159.793 46.4986 153.271 49.2085 150.634 45.1703C150.634 45.1703 147.659 45.6618 146.921 43.5896C146.184 41.5174 149.279 40.9329 150.74 41.8627C150.74 41.8627 146.211 37.8777 150.86 36.7685C155.509 35.6594 156.505 39.4252 156.505 39.4252C156.505 39.4252 158.338 33.9259 162.483 36.37C166.627 38.8142 164.05 41.1786 164.05 41.1786C164.05 41.1786 173.893 41.9424 170.227 45.8278C166.561 49.7132 165 49.5671 165 49.5671Z" fill="#263238"/>
<path d="M161.44 68.6554C161.998 68.7086 161.752 70.6479 161.5 70.7808C160.922 71.0929 153.962 69.665 154.194 68.589C154.434 68.0722 154.768 67.6039 155.177 67.2075C155.483 66.9817 156.545 68.2503 161.44 68.6554Z" fill="#263238"/>
<path d="M197.791 83.865C194.974 83.8562 192.259 84.9177 190.195 86.8347C188.13 88.7517 186.871 91.3811 186.672 94.191C186.473 97.001 187.349 99.7817 189.122 101.971C190.895 104.16 193.433 105.593 196.223 105.982C196.279 108.788 195.295 111.516 193.461 113.64C193.461 113.64 208.909 109.794 208.909 94.9832C208.909 92.0345 207.738 89.2065 205.653 87.1215C203.568 85.0364 200.74 83.865 197.791 83.865Z" fill="#407BFF"/>
<path d="M222.81 83.8649C219.993 83.8561 217.278 84.9176 215.214 86.8346C213.15 88.7516 211.891 91.381 211.692 94.191C211.493 97.0009 212.368 99.7816 214.141 101.971C215.915 104.16 218.453 105.593 221.243 105.982C221.308 108.784 220.336 111.511 218.513 113.64C218.513 113.64 233.962 109.794 233.962 94.9832C233.963 93.5201 233.675 92.0712 233.114 90.7197C232.554 89.3682 231.732 88.1407 230.696 87.1077C229.66 86.0746 228.43 85.2564 227.076 84.6999C225.723 84.1434 224.274 83.8597 222.81 83.8649Z" fill="#407BFF"/>
</svg>
